{
  "accessors": [
    {
      "bufferView": 2,
      "componentType": 5126,
      "count": 861,
      "max": [
        0.95538985729217529,
        1.0153424739837646,
        1.8724888563156128
      ],
      "min": [
        -0.9553905725479126,
        -0.99540328979492188,
        -1.5997532606124878
      ],
      "type": "VEC3"
    },
    {
      "bufferView": 2,
      "byteOffset": 10332,
      "componentType": 5126,
      "count": 861,
      "max": [
        1,
        1,
        1
      ],
      "min": [
        -1,
        -1,
        -1
      ],
      "type": "VEC3"
    },
    {
      "bufferView": 3,
      "componentType": 5126,
      "count": 861,
      "max": [
        1,
        0.99470233917236328,
        1,
        1
      ],
      "min": [
        -1,
        -0.96350067853927612,
        -1,
        1
      ],
      "type": "VEC4"
    },
    {
      "bufferView": 1,
      "componentType": 5126,
      "count": 861,
      "max": [
        1,
        0.99999994039535522
      ],
      "min": [
        0,
        0
      ],
      "type": "VEC2"
    },
    {
      "bufferView": 0,
      "componentType": 5125,
      "count": 2640,
      "max": [
        860
      ],
      "min": [
        0
      ],
      "type": "SCALAR"
    }
  ],
  "asset": {
    "extras": {
      "author": "Batuhan13 (https://sketchfab.com/Batuhan13)",
      "license": "CC-BY-4.0 (http://creativecommons.org/licenses/by/4.0/)",
      "source": "https://sketchfab.com/3d-models/low-poly-cinema-chair-a7e1ac57f9d143b195165c80407fd60d",
      "title": "Low poly cinema chair."
    },
    "generator": "Sketchfab-5.30.0",
    "version": "2.0"
  },
  "bufferViews": [
    {
      "buffer": 0,
      "byteLength": 10560,
      "byteOffset": 0,
      "name": "floatBufferViews",
      "target": 34963
    },
    {
      "buffer": 0,
      "byteLength": 6888,
      "byteOffset": 10560,
      "byteStride": 8,
      "name": "floatBufferViews",
      "target": 34962
    },
    {
      "buffer": 0,
      "byteLength": 20664,
      "byteOffset": 17448,
      "byteStride": 12,
      "name": "floatBufferViews",
      "target": 34962
    },
    {
      "buffer": 0,
      "byteLength": 13776,
      "byteOffset": 38112,
      "byteStride": 16,
      "name": "floatBufferViews",
      "target": 34962
    }
  ],
  "buffers": [
    {
      "byteLength": 51888,
      "uri": "scene3.bin"
    }
  ],
  "images": [
    {
      "uri": "textures/Material_normal.png"
    },
    {
      "uri": "textures/Material_metallicRoughness.png"
    },
    {
      "uri": "textures/Material_baseColor.png"
    }
  ],
  "materials": [
    {
      "doubleSided": true,
      "emissiveFactor": [
        0,
        0,
        0
      ],
      "name": "Material",
      "normalTexture": {
        "index": 0,
        "scale": 1,
        "texCoord": 0
      },
      "pbrMetallicRoughness": {
        "baseColorFactor": [
          1,
          1,
          1,
          1
        ],
        "baseColorTexture": {
          "index": 2,
          "texCoord": 0
        },
        "metallicFactor": 1,
        "metallicRoughnessTexture": {
          "index": 1,
          "texCoord": 0
        },
        "roughnessFactor": 0.82111456179999998
      }
    }
  ],
  "meshes": [
    {
      "name": "Cube.008_Material_0",
      "primitives": [
        {
          "attributes": {
            "NORMAL": 1,
            "POSITION": 0,
            "TANGENT": 2,
            "TEXCOORD_0": 3
          },
          "indices": 4,
          "material": 0,
          "mode": 4
        }
      ]
    }
  ],
  "nodes": [
    {
      "children": [
        1
      ],
      "name": "RootNode (gltf orientation matrix)",
      "rotation": [
        -0.70710678118654746,
        -0,
        -0,
        0.70710678118654757
      ]
    },
    {
      "children": [
        2
      ],
      "name": "RootNode (model correction matrix)"
    },
    {
      "children": [
        3
      ],
      "matrix": [
        1,
        0,
        0,
        0,
        0,
        0,
        1,
        0,
        0,
        -1,
        0,
        0,
        0,
        0,
        0,
        1
      ],
      "name": "8d69fdbe3f84427dafc6ae864e3acd90.fbx"
    },
    {
      "children": [
        4
      ],
      "name": "RootNode"
    },
    {
      "children": [
        5
      ],
      "matrix": [
        100,
        0,
        0,
        0,
        0,
        -1.6292067939183141e-05,
        -99.999999999998678,
        0,
        0,
        99.999999999998678,
        -1.6292067939183141e-05,
        0,
        0,
        0,
        0,
        1
      ],
      "name": "Cube.008"
    },
    {
      "mesh": 0,
      "name": "Cube.008_Material_0"
    }
  ],
  "samplers": [
    {
      "magFilter": 9729,
      "minFilter": 9987,
      "wrapS": 10497,
      "wrapT": 10497
    }
  ],
  "scene": 0,
  "scenes": [
    {
      "name": "OSG_Scene",
      "nodes": [
        0
      ]
    }
  ],
  "textures": [
    {
      "sampler": 0,
      "source": 0
    },
    {
      "sampler": 0,
      "source": 1
    },
    {
      "sampler": 0,
      "source": 2
    }
  ]
}

