{
  "accessors": [
    {
      "bufferView": 2,
      "componentType": 5126,
      "count": 65532,
      "max": [
        348.73272705078125,
        -112.70014953613281,
        211.47029113769531
      ],
      "min": [
        -283.00912475585938,
        -599.61431884765625,
        -412.22662353515625
      ],
      "type": "VEC3"
    },
    {
      "bufferView": 2,
      "byteOffset": 786384,
      "componentType": 5126,
      "count": 65532,
      "max": [
        0.99994969367980957,
        0.9999123215675354,
        0.99997633695602417
      ],
      "min": [
        -0.9998968243598938,
        -0.97510218620300293,
        -0.99986499547958374
      ],
      "type": "VEC3"
    },
    {
      "bufferView": 3,
      "componentType": 5126,
      "count": 65532,
      "max": [
        1,
        1,
        1,
        1
      ],
      "min": [
        -0.99541968107223511,
        -1,
        -1,
        1
      ],
      "type": "VEC4"
    },
    {
      "bufferView": 1,
      "componentType": 5126,
      "count": 65532,
      "max": [
        0.97447502613067627,
        0.99258202314376831
      ],
      "min": [
        0.0019450000254437327,
        0.0019920000340789557
      ],
      "type": "VEC2"
    },
    {
      "bufferView": 0,
      "componentType": 5125,
      "count": 373914,
      "max": [
        65531
      ],
      "min": [
        0
      ],
      "type": "SCALAR"
    },
    {
      "bufferView": 2,
      "byteOffset": 1572768,
      "componentType": 5126,
      "count": 65532,
      "max": [
        363.53878784179688,
        -283.95980834960938,
        192.91163635253906
      ],
      "min": [
        -323.30047607421875,
        -625.57745361328125,
        -410.83404541015625
      ],
      "type": "VEC3"
    },
    {
      "bufferView": 2,
      "byteOffset": 2359152,
      "componentType": 5126,
      "count": 65532,
      "max": [
        0.99995964765548706,
        0.99970394372940063,
        0.99956542253494263
      ],
      "min": [
        -0.99998366832733154,
        -0.99996089935302734,
        -1
      ],
      "type": "VEC3"
    },
    {
      "bufferView": 3,
      "byteOffset": 1048512,
      "componentType": 5126,
      "count": 65532,
      "max": [
        1,
        1,
        0.99999994039535522,
        1
      ],
      "min": [
        -0.99495351314544678,
        -1,
        -0.99998927116394043,
        1
      ],
      "type": "VEC4"
    },
    {
      "bufferView": 1,
      "byteOffset": 524256,
      "componentType": 5126,
      "count": 65532,
      "max": [
        0.97447502613067627,
        0.99800801277160645
      ],
      "min": [
        0.0019450000254437327,
        0.0019920000340789557
      ],
      "type": "VEC2"
    },
    {
      "bufferView": 0,
      "byteOffset": 1495656,
      "componentType": 5125,
      "count": 347166,
      "max": [
        65531
      ],
      "min": [
        0
      ],
      "type": "SCALAR"
    },
    {
      "bufferView": 2,
      "byteOffset": 3145536,
      "componentType": 5126,
      "count": 65532,
      "max": [
        378.40478515625,
        -364.33407592773438,
        413.65350341796875
      ],
      "min": [
        -313.44705200195312,
        -703.4991455078125,
        -517.55108642578125
      ],
      "type": "VEC3"
    },
    {
      "bufferView": 2,
      "byteOffset": 3931920,
      "componentType": 5126,
      "count": 65532,
      "max": [
        0.99996203184127808,
        0.99995255470275879,
        0.99995458126068115
      ],
      "min": [
        -0.9998968243598938,
        -1,
        -0.99988663196563721
      ],
      "type": "VEC3"
    },
    {
      "bufferView": 3,
      "byteOffset": 2097024,
      "componentType": 5126,
      "count": 65532,
      "max": [
        1,
        1,
        1,
        1
      ],
      "min": [
        -0.99972295761108398,
        -0.99999994039535522,
        -0.99967527389526367,
        1
      ],
      "type": "VEC4"
    },
    {
      "bufferView": 1,
      "byteOffset": 1048512,
      "componentType": 5126,
      "count": 65532,
      "max": [
        0.96680402755737305,
        0.99749797582626343
      ],
      "min": [
        0.0019450000254437327,
        0.0021840000990778208
      ],
      "type": "VEC2"
    },
    {
      "bufferView": 0,
      "byteOffset": 2884320,
      "componentType": 5125,
      "count": 348846,
      "max": [
        65531
      ],
      "min": [
        0
      ],
      "type": "SCALAR"
    },
    {
      "bufferView": 2,
      "byteOffset": 4718304,
      "componentType": 5126,
      "count": 65532,
      "max": [
        362.56143188476562,
        -433.61495971679688,
        409.732666015625
      ],
      "min": [
        -273.8658447265625,
        -716.82806396484375,
        -518.39337158203125
      ],
      "type": "VEC3"
    },
    {
      "bufferView": 2,
      "byteOffset": 5504688,
      "componentType": 5126,
      "count": 65532,
      "max": [
        0.99844962358474731,
        0.99999988079071045,
        0.99995291233062744
      ],
      "min": [
        -0.9999014139175415,
        -0.9994434118270874,
        -0.99989998340606689
      ],
      "type": "VEC3"
    },
    {
      "bufferView": 3,
      "byteOffset": 3145536,
      "componentType": 5126,
      "count": 65532,
      "max": [
        1,
        1,
        0.9999537467956543,
        1
      ],
      "min": [
        -0.99541968107223511,
        -1,
        -0.99969369173049927,
        1
      ],
      "type": "VEC4"
    },
    {
      "bufferView": 1,
      "byteOffset": 1572768,
      "componentType": 5126,
      "count": 65532,
      "max": [
        0.97198200225830078,
        0.99247002601623535
      ],
      "min": [
        0.0097470004111528397,
        0.0019920000340789557
      ],
      "type": "VEC2"
    },
    {
      "bufferView": 0,
      "byteOffset": 4279704,
      "componentType": 5125,
      "count": 358407,
      "max": [
        65531
      ],
      "min": [
        0
      ],
      "type": "SCALAR"
    },
    {
      "bufferView": 2,
      "byteOffset": 6291072,
      "componentType": 5126,
      "count": 65532,
      "max": [
        362.94027709960938,
        -461.10723876953125,
        412.01910400390625
      ],
      "min": [
        -288.81512451171875,
        -674.98040771484375,
        -509.71316528320312
      ],
      "type": "VEC3"
    },
    {
      "bufferView": 2,
      "byteOffset": 7077456,
      "componentType": 5126,
      "count": 65532,
      "max": [
        1,
        0.99995934963226318,
        0.99490880966186523
      ],
      "min": [
        -0.99979740381240845,
        -0.99999797344207764,
        -0.99798321723937988
      ],
      "type": "VEC3"
    },
    {
      "bufferView": 3,
      "byteOffset": 4194048,
      "componentType": 5126,
      "count": 65532,
      "max": [
        1,
        1,
        0.99999958276748657,
        1
      ],
      "min": [
        -0.99864375591278076,
        -0.99999994039535522,
        -0.99996465444564819,
        1
      ],
      "type": "VEC4"
    },
    {
      "bufferView": 1,
      "byteOffset": 2097024,
      "componentType": 5126,
      "count": 65532,
      "max": [
        0.97447502613067627,
        0.99382400512695312
      ],
      "min": [
        0.0019450000254437327,
        0.01091300044208765
      ],
      "type": "VEC2"
    },
    {
      "bufferView": 0,
      "byteOffset": 5713332,
      "componentType": 5125,
      "count": 360099,
      "max": [
        65531
      ],
      "min": [
        0
      ],
      "type": "SCALAR"
    },
    {
      "bufferView": 2,
      "byteOffset": 7863840,
      "componentType": 5126,
      "count": 65532,
      "max": [
        377.64361572265625,
        -112.70014953613281,
        413.29736328125
      ],
      "min": [
        -314.259765625,
        -716.945556640625,
        -517.859375
      ],
      "type": "VEC3"
    },
    {
      "bufferView": 2,
      "byteOffset": 8650224,
      "componentType": 5126,
      "count": 65532,
      "max": [
        1,
        1,
        1
      ],
      "min": [
        -0.99998897314071655,
        -1,
        -0.99999189376831055
      ],
      "type": "VEC3"
    },
    {
      "bufferView": 3,
      "byteOffset": 5242560,
      "componentType": 5126,
      "count": 65532,
      "max": [
        1,
        1,
        0.99999994039535522,
        1
      ],
      "min": [
        -0.99528545141220093,
        -0.9999997615814209,
        -1,
        1
      ],
      "type": "VEC4"
    },
    {
      "bufferView": 1,
      "byteOffset": 2621280,
      "componentType": 5126,
      "count": 65532,
      "max": [
        0.97447502613067627,
        0.99793201684951782
      ],
      "min": [
        0.0019450000254437327,
        0.0028870000969618559
      ],
      "type": "VEC2"
    },
    {
      "bufferView": 0,
      "byteOffset": 7153728,
      "componentType": 5125,
      "count": 321276,
      "max": [
        65531
      ],
      "min": [
        0
      ],
      "type": "SCALAR"
    },
    {
      "bufferView": 2,
      "byteOffset": 9436608,
      "componentType": 5126,
      "count": 6552,
      "max": [
        363.24847412109375,
        -114.03113555908203,
        -49.952640533447266
      ],
      "min": [
        -231.15251159667969,
        -716.17474365234375,
        -517.859375
      ],
      "type": "VEC3"
    },
    {
      "bufferView": 2,
      "byteOffset": 9515232,
      "componentType": 5126,
      "count": 6552,
      "max": [
        0.99952703714370728,
        0.95621025562286377,
        0.84480351209640503
      ],
      "min": [
        -0.96242356300354004,
        -0.99999845027923584,
        -0.99864274263381958
      ],
      "type": "VEC3"
    },
    {
      "bufferView": 3,
      "byteOffset": 6291072,
      "componentType": 5126,
      "count": 6552,
      "max": [
        1,
        0.99894976615905762,
        0.99999958276748657,
        1
      ],
      "min": [
        -0.9408944845199585,
        -0.99853575229644775,
        -0.95687657594680786,
        1
      ],
      "type": "VEC4"
    },
    {
      "bufferView": 1,
      "byteOffset": 3145536,
      "componentType": 5126,
      "count": 6552,
      "max": [
        0.96915799379348755,
        0.98904001712799072
      ],
      "min": [
        0.061707001179456711,
        0.0019920000340789557
      ],
      "type": "VEC2"
    },
    {
      "bufferView": 0,
      "byteOffset": 8438832,
      "componentType": 5125,
      "count": 18603,
      "max": [
        6551
      ],
      "min": [
        0
      ],
      "type": "SCALAR"
    }
  ],
  "asset": {
    "extras": {
      "author": "IUPUI Center for Digital Scholarship (https://sketchfab.com/iupuicds)",
      "license": "CC-BY-4.0 (http://creativecommons.org/licenses/by/4.0/)",
      "source": "https://sketchfab.com/models/48fccc33c53f450b8b04bb1f906951d4",
      "title": "Orange Chair"
    },
    "generator": "Sketchfab-3.31.2",
    "version": "2.0"
  },
  "bufferViews": [
    {
      "buffer": 0,
      "byteLength": 8513244,
      "byteOffset": 0,
      "name": "floatBufferViews",
      "target": 34963
    },
    {
      "buffer": 0,
      "byteLength": 3197952,
      "byteOffset": 8513244,
      "byteStride": 8,
      "name": "floatBufferViews",
      "target": 34962
    },
    {
      "buffer": 0,
      "byteLength": 9593856,
      "byteOffset": 11711196,
      "byteStride": 12,
      "name": "floatBufferViews",
      "target": 34962
    },
    {
      "buffer": 0,
      "byteLength": 6395904,
      "byteOffset": 21305052,
      "byteStride": 16,
      "name": "floatBufferViews",
      "target": 34962
    }
  ],
  "buffers": [
    {
      "byteLength": 27700956,
      "uri": "scene.bin"
    }
  ],
  "images": [
    {
      "uri": "textures/material_0_baseColor.jpg"
    }
  ],
  "materials": [
    {
      "doubleSided": true,
      "name": "material_0",
      "pbrMetallicRoughness": {
        "baseColorFactor": [
          1,
          1,
          1,
          1
        ],
        "baseColorTexture": {
          "index": 0,
          "texCoord": 0
        },
        "metallicFactor": 0,
        "roughnessFactor": 0.38586128050000001
      }
    }
  ],
  "meshes": [
    {
      "primitives": [
        {
          "attributes": {
            "NORMAL": 1,
            "POSITION": 0,
            "TANGENT": 2,
            "TEXCOORD_0": 3
          },
          "indices": 4,
          "material": 0,
          "mode": 4
        }
      ]
    },
    {
      "primitives": [
        {
          "attributes": {
            "NORMAL": 6,
            "POSITION": 5,
            "TANGENT": 7,
            "TEXCOORD_0": 8
          },
          "indices": 9,
          "material": 0,
          "mode": 4
        }
      ]
    },
    {
      "primitives": [
        {
          "attributes": {
            "NORMAL": 11,
            "POSITION": 10,
            "TANGENT": 12,
            "TEXCOORD_0": 13
          },
          "indices": 14,
          "material": 0,
          "mode": 4
        }
      ]
    },
    {
      "primitives": [
        {
          "attributes": {
            "NORMAL": 16,
            "POSITION": 15,
            "TANGENT": 17,
            "TEXCOORD_0": 18
          },
          "indices": 19,
          "material": 0,
          "mode": 4
        }
      ]
    },
    {
      "primitives": [
        {
          "attributes": {
            "NORMAL": 21,
            "POSITION": 20,
            "TANGENT": 22,
            "TEXCOORD_0": 23
          },
          "indices": 24,
          "material": 0,
          "mode": 4
        }
      ]
    },
    {
      "primitives": [
        {
          "attributes": {
            "NORMAL": 26,
            "POSITION": 25,
            "TANGENT": 27,
            "TEXCOORD_0": 28
          },
          "indices": 29,
          "material": 0,
          "mode": 4
        }
      ]
    },
    {
      "primitives": [
        {
          "attributes": {
            "NORMAL": 31,
            "POSITION": 30,
            "TANGENT": 32,
            "TEXCOORD_0": 33
          },
          "indices": 34,
          "material": 0,
          "mode": 4
        }
      ]
    }
  ],
  "nodes": [
    {
      "children": [
        1
      ],
      "name": "RootNode (gltf orientation matrix)",
      "rotation": [
        -0.70710678118654746,
        -0,
        -0,
        0.70710678118654757
      ]
    },
    {
      "children": [
        2
      ],
      "matrix": [
        -0.78694838285446167,
        0.57058674097061157,
        -0.2348255068063736,
        0,
        -0.61701881885528564,
        -0.72772866487503052,
        0.29949742555618286,
        0,
        0,
        0.38058078289031982,
        0.92474770545959473,
        0,
        -206.71803283691406,
        -712.49188232421875,
        126.76757049560547,
        1
      ],
      "name": "RootNode (model correction matrix)"
    },
    {
      "children": [
        3,
        4,
        5,
        6,
        7,
        8,
        9
      ],
      "name": "orange_chair_final.obj.cleaner.materialmerger.gles"
    },
    {
      "mesh": 0,
      "name": ""
    },
    {
      "mesh": 1,
      "name": ""
    },
    {
      "mesh": 2,
      "name": ""
    },
    {
      "mesh": 3,
      "name": ""
    },
    {
      "mesh": 4,
      "name": ""
    },
    {
      "mesh": 5,
      "name": ""
    },
    {
      "mesh": 6,
      "name": ""
    }
  ],
  "samplers": [
    {
      "magFilter": 9729,
      "minFilter": 9987,
      "wrapS": 10497,
      "wrapT": 10497
    }
  ],
  "scene": 0,
  "scenes": [
    {
      "name": "OSG_Scene",
      "nodes": [
        0
      ]
    }
  ],
  "textures": [
    {
      "sampler": 0,
      "source": 0
    }
  ]
}

